<svg xmlns="http://www.w3.org/2000/svg" viewBox="0 0 512 512" fill="none">
  <defs>
    <linearGradient id="bg" x1="0" y1="0" x2="512" y2="512" gradientUnits="userSpaceOnUse">
      <stop stop-color="#0f172a"/>
      <stop offset="1" stop-color="#134e4a"/>
    </linearGradient>
    <linearGradient id="glow" x1="128" y1="96" x2="384" y2="416" gradientUnits="userSpaceOnUse">
      <stop stop-color="#14b8a6"/>
      <stop offset="1" stop-color="#5eead4"/>
    </linearGradient>
    <linearGradient id="gold" x1="220" y1="200" x2="292" y2="312" gradientUnits="userSpaceOnUse">
      <stop stop-color="#fde047"/>
      <stop offset="1" stop-color="#f59e0b"/>
    </linearGradient>
  </defs>
  <rect width="512" height="512" fill="url(#bg)"/>
  <circle cx="256" cy="256" r="196" stroke="url(#glow)" stroke-width="14" opacity="0.55"/>
  <circle cx="256" cy="256" r="168" stroke="#2dd4bf" stroke-width="8" opacity="0.35"/>
  <circle cx="256" cy="256" r="132" fill="#0b1220" stroke="url(#glow)" stroke-width="12"/>
  <g transform="translate(256 256)" fill="url(#glow)">
    <g transform="rotate(0) translate(0 -72) scale(1.35)">
      <path d="M 0 10 C -16 6 -22 -10 -12 -22 C -2 -32 16 -26 20 -12 C 22 0 12 12 0 10 Z"/>
    </g>
    <g transform="rotate(120) translate(0 -72) scale(1.35)">
      <path d="M 0 10 C -16 6 -22 -10 -12 -22 C -2 -32 16 -26 20 -12 C 22 0 12 12 0 10 Z"/>
    </g>
    <g transform="rotate(240) translate(0 -72) scale(1.35)">
      <path d="M 0 10 C -16 6 -22 -10 -12 -22 C -2 -32 16 -26 20 -12 C 22 0 12 12 0 10 Z"/>
    </g>
    <circle r="46" fill="#0f172a" stroke="#2dd4bf" stroke-width="6"/>
    <circle r="26" fill="url(#gold)"/>
    <circle r="11" fill="#0f172a"/>
    <circle r="5" fill="#5eead4"/>
  </g>
</svg>
